<svg id="Layer_1" data-name="Layer 1" xmlns="http://www.w3.org/2000/svg" xmlns:xlink="http://www.w3.org/1999/xlink" viewBox="0 0 708 403.2"><defs><style>.cls-1,.cls-8{fill:none;}.cls-1{clip-rule:evenodd;}.cls-2{clip-path:url(#clip-path);}.cls-3{fill:url(#linear-gradient);}.cls-11,.cls-4{fill:#003398;}.cls-10,.cls-12,.cls-13,.cls-14,.cls-15,.cls-16,.cls-17,.cls-18,.cls-19,.cls-20,.cls-21,.cls-22,.cls-23,.cls-24,.cls-25,.cls-26,.cls-27,.cls-28,.cls-29,.cls-30,.cls-31,.cls-32,.cls-33,.cls-34,.cls-35,.cls-36,.cls-37,.cls-38,.cls-4,.cls-41,.cls-43,.cls-44,.cls-45,.cls-46,.cls-47,.cls-9{fill-rule:evenodd;}.cls-5{clip-path:url(#clip-path-2);}.cls-6{fill:url(#linear-gradient-2);}.cls-7{fill:#102b6e;}.cls-8{stroke:#102b6e;stroke-miterlimit:22.93;stroke-width:0.5px;}.cls-9{fill:#4596d1;}.cls-10{fill:#e4f5fb;}.cls-12{fill:#ee4354;}.cls-13{fill:#a5dbfd;}.cls-14{fill:#fdfdfd;}.cls-15{fill:#b2defc;}.cls-16,.cls-40{fill:#fff;}.cls-17{fill:#f8babc;}.cls-18{fill:#ea8287;}.cls-19{fill:#f7ab2b;}.cls-20,.cls-42{fill:#76c5fb;}.cls-21{fill:#fca700;}.cls-22{fill:#6aaff1;}.cls-23{fill:#569bdd;}.cls-24{fill:#ed979b;}.cls-25{fill:#f7aaac;}.cls-26{fill:#e88e92;}.cls-27{fill:#8ccdfb;}.cls-28{fill:#1a47b6;}.cls-29{fill:#eca01f;}.cls-30{fill:#eb8e91;}.cls-31{fill:#ffc86b;}.cls-32{fill:#ffbc4a;}.cls-33{fill:#992842;}.cls-34{fill:#ba3954;}.cls-35{fill:#efd817;}.cls-36{fill:#90a7d1;}.cls-37{fill:#7c93c3;}.cls-38{fill:#00a551;}.cls-39{fill:#cbe6d2;}.cls-41{fill:#64a4e2;}.cls-43{fill:#ec1c24;}.cls-44{fill:#3dabf9;}.cls-45{fill:#ff5269;}.cls-46{fill:#26a0f8;}.cls-47{fill:#219ef8;}.cls-48{fill:#f68c21;}</style><clipPath id="clip-path"><path class="cls-1" d="M92.57,287.5H74.19c-31.61,0-57.46,23.76-57.46,52.8s25.85,52.8,57.46,52.8h523c51.17,0,93-38.48,93-85.5s-41.87-85.5-93-85.5C575.59,222.1,556,205.83,556,186s17.7-36.15,39.34-36.15h22.25c22.5,0,40.9-16.92,40.9-37.59s-18.4-37.58-40.9-37.58h-63.4c-8.76,0-15.93-6.59-15.93-14.64s7.17-14.63,15.93-14.63h10.55c6,0,11-4.54,11-10.1h0c0-5.55-4.94-10.1-11-10.1H499C484.45,25.16,482.82,41,446,41H366.79c-7.89,0-14.34,5.93-14.34,13.17h0c0,7.24,6.45,13.17,14.34,13.17h13.77c11.43,0,20.78,8.59,20.78,19.1s-9.35,19.09-20.78,19.09H359.84c-56,0-63.87,13.44-73.68,40.17S177,174.6,177,174.6H103.67c-17.22,0-31.31,12.94-31.31,28.77.07,10.29,3.59,22.26,26.69,31.27a27.3,27.3,0,0,1,17.67,25.18C116.72,275,109.13,287.5,92.57,287.5Zm503-242.14c-6.07,0-11-4.52-11-10.1s4.92-10.1,11-10.1,11,4.52,11,10.1S601.67,45.36,595.6,45.36Z"/></clipPath><linearGradient id="linear-gradient" x1="353.5" y1="850.1" x2="353.5" y2="-17.75" gradientUnits="userSpaceOnUse"><stop offset="0" stop-color="#1e9df8"/><stop offset="0.01" stop-color="#209ef8"/><stop offset="0.37" stop-color="#77c4fb"/><stop offset="0.67" stop-color="#b6dffd"/><stop offset="0.89" stop-color="#ddf0fe"/><stop offset="1" stop-color="#ecf7ff"/></linearGradient><clipPath id="clip-path-2"><path class="cls-1" d="M218.78,138.49H525a.29.29,0,0,1,.3.29V333.35a.29.29,0,0,1-.3.3H218.78a.29.29,0,0,1-.3-.3V138.78a.29.29,0,0,1,.3-.29"/></clipPath><linearGradient id="linear-gradient-2" x1="371.9" y1="320.87" x2="371.9" y2="162.81" gradientUnits="userSpaceOnUse"><stop offset="0" stop-color="#3d9dff"/><stop offset="1" stop-color="#ceecfa"/></linearGradient></defs><g class="cls-2"><rect class="cls-3" x="16.73" y="25.16" width="673.55" height="367.93"/></g><path class="cls-4" d="M224,124.28H519.75A19.33,19.33,0,0,1,539,143.55v185a19.33,19.33,0,0,1-19.28,19.27H224a19.33,19.33,0,0,1-19.28-19.27v-185A19.33,19.33,0,0,1,224,124.28"/><g class="cls-5"><rect class="cls-6" x="218.48" y="138.49" width="306.84" height="195.17"/></g><rect class="cls-7" x="388.3" y="118.84" width="119.61" height="185.94"/><rect class="cls-8" x="388.3" y="118.84" width="119.61" height="185.94"/><path class="cls-9" d="M345.71,344.88c-1.35,26.46-4.95,33.15-29.83,48.22H426.21c-24.89-15.07-28.48-21.76-29.84-48.22L371,342.73Z"/><path class="cls-10" d="M539,315.92v12.67a19.33,19.33,0,0,1-19.28,19.27H224a19.33,19.33,0,0,1-19.28-19.27V315.92Z"/><rect class="cls-11" x="204.76" y="303.43" width="334.26" height="20.25"/><path class="cls-12" d="M386.81,118.84H511.42a4,4,0,0,0,0-8H386.81a4,4,0,1,0,0,8"/><polygon class="cls-13" points="376.15 294.48 493.13 294.48 507.16 127.32 389.99 127.32 376.15 294.48"/><path class="cls-14" d="M387.42,118.84c-6.71,61.17-20,113.34-31.5,175.09,41.18.55,82.58.55,123.54.55,9-45.45,19.82-127.57,28.45-175.64Z"/><path class="cls-15" d="M382.59,256.12h80.69a2.08,2.08,0,0,1,2.08,2.07h0a2.08,2.08,0,0,1-2.08,2.08H382.59a2.08,2.08,0,0,1-2.07-2.08h0a2.07,2.07,0,0,1,2.07-2.07"/><path class="cls-15" d="M379.66,269.4h80.69a2.08,2.08,0,0,1,2.08,2.08h0a2.08,2.08,0,0,1-2.08,2.07H379.66a2.07,2.07,0,0,1-2.07-2.07h0a2.08,2.08,0,0,1,2.07-2.08"/><path class="cls-4" d="M305.1,210.92c7.6,16.69,17,35.8,38.79,39.05,17.65,2.62,43.47-30.59,46-36s-7.1-19.58-10.22-17.94-28.69,21.39-31,21.24c-2.73-.18-12-29.8-28.94-39.55-2.63-1.52-17.88,26-14.61,33.21"/><path class="cls-4" d="M263,169.78c-10.73,0-19.93,3.29-26.43,10-9,9.37,6.67,72.63,7.78,123.93h91.55c.56-22.77.1-76.44-5-115-3-4.75-10-10.81-16.95-14.78-12.2-6.95-36-4.14-50.91-4.14"/><path class="cls-16" d="M296.22,169.54c13.33,7.21,23.72,56.63,23.43,133.89H282.91c-1.4-80.86-14.16-119.88-19.22-133.66,10.84-.71,19.07-1.37,32.53-.23"/><path class="cls-10" d="M268.21,169.48a168.2,168.2,0,0,1,27.1,0c3.25,4.41,4.46,18.26-6.69,24-9.29-1.76-24.31-14.24-20.41-24"/><path class="cls-16" d="M296.31,171.28a11.38,11.38,0,0,0-2.47-1.92l1.47.11a8.32,8.32,0,0,1,1,1.81"/><path class="cls-17" d="M310.12,149.79c1.52,9.61-10,16.93-17.85,16.29v4.39l.78,1.06c4.6,9.06-.34,16.06-5.1,18.5-7.44-2.67-17.72-9.49-17.88-19l.48-.59V153.64a8,8,0,0,1-1.73-.73c-1.72-1-2.39-3.46-1.93-6s4.14-.82,4.14-.82h0c-3.19-7.51-7.28-14,1-18.16s24.83-3.86,24.83-3.86l11.12-.93c-2.69,4.09,1.19,20.28,2.19,26.64"/><path class="cls-18" d="M294.1,166.17q-.93,0-1.83-.09h0c-4.94-.09-10.12-3.44-14.71-5.12,0,0,2.32,8.22,8.2,10.82a22.19,22.19,0,0,0,6.51,1.81v-7.51l1.77,0Z"/><path class="cls-4" d="M276.19,132c-4,3.15-1.23,11.46-.09,13.85,1.25,2.6,2.55,6,1.65,6.37-3.51,1.53-6.43-4.89-8.09-5.68a2.45,2.45,0,0,0-2.08-.05c-1.55,1.17-.71,4.86,1.07,6.09.52.37,1.32,1.08,1.32,1.08-7.13-.2-24-17.19-15.81-27.61,2-20.63,13.86-26.15,27.56-25.8,5.34.14,10.35,3.13,15.74,5.41,2.13.9,3.86,1.88,5.46,2,3.92.39,4.79-3.29,7.14-1.15,9.63,8.78,2.27,33.71-20,26.57-7.28-2.34-11-3.34-13.86-1.11"/><path class="cls-4" d="M260.69,197.73c3.92-8.06-.48-16.5-8.79-20h0c-8.31-3.55-17.26,1.47-21.18,9.54C223,203.05,200.57,239,211.6,256.84c9,14.44,33.23,7.49,38.83,6s9-19.1,9-19.1-16.66.41-18.53-3.93c-3.1-7.19,17.08-36.4,19.83-42.06"/><path class="cls-16" d="M257.59,245.39c-4.72,2.81-8.31,10.92-8,16.26,1.27-.24,12.23-3.88,12.23-3.88,3.82-4.33,5.09-9.92,4.1-13.5Z"/><path class="cls-12" d="M286.56,235.05l1.21.95a.93.93,0,0,1,.16,1.3l-20.45,25.87c-.32.4-2.72,1.54-3.12,1.23s.18-3,.49-3.37l20.42-25.82a.92.92,0,0,1,1.29-.16"/><path class="cls-17" d="M265.47,245.05l5.77-1,6.6-4.38a1.77,1.77,0,0,1,2.2.23c9.6,7.39,1.11,10.1-5.21,16.67-2.93.07-2.62.08-4.6-2.59-.39-.52-8.83,2.44-8.83,2.44-.12-1.75.56-7.55,4.07-11.42"/><path class="cls-16" d="M380.57,197.94c-.82,5.12,4,13.38,7.59,14.84.4-.72,2.83-3.84,4.43-6.24,3.45-5.16-4.69-15.94-7.08-13.55Z"/><path class="cls-19" d="M415.18,188.36c3.75,6.51,7.25,15.2,8,21.58H443c1.52-3.15,6.15-9.36,10.39-14.76s8.06-10,8-10a28.41,28.41,0,0,0,6.3-13.91c1.13-6.32-.52-14.45-4.65-19.41s-10.52-8.05-18.18-8.05a33.16,33.16,0,0,0-21.05,8.05c-5.9,5-10.47,13.1-11.6,19.41s-.37,9.78,1.3,13.85c.6,1.09,1,2.14,1.66,3.23"/><path class="cls-16" d="M442.2,181.86a4.08,4.08,0,0,1,2.67-1.77,3.32,3.32,0,0,1,2.06.29,3.53,3.53,0,0,1,1.45,1.44,4.33,4.33,0,0,1,.48,2.4,7.38,7.38,0,0,1-.82,2.94c-.7,1.44-3,2.42-5.74,3-.73,4.07-1.46,8.12-2.18,12.18h-1.77l2.13-11.89a32.14,32.14,0,0,1-7.9,0q-1.06,5.94-2.12,11.87h-1.89c.72-4.06,1.45-8.11,2.17-12.18-2.6-.57-4.48-1.56-4.67-3a6.72,6.72,0,0,1,.22-2.94,6.46,6.46,0,0,1,1.35-2.4,5.7,5.7,0,0,1,2-1.44,3.83,3.83,0,0,1,2.16-.29,2.55,2.55,0,0,1,2.05,1.77,6.71,6.71,0,0,1-.06,3.47c0,.15-.08.29-.11.44l-1.8-.17a2.92,2.92,0,0,1,.1-.4,4.55,4.55,0,0,0,.08-2.31,1.1,1.1,0,0,0-.91-.78,2,2,0,0,0-1.14.16,3.16,3.16,0,0,0-1.13.82,3.64,3.64,0,0,0-.79,1.42,4.75,4.75,0,0,0-.15,2c.38,2.69,17.19,2.68,18.52,0a5.09,5.09,0,0,0,.56-2,2.7,2.7,0,0,0-.27-1.42,1.9,1.9,0,0,0-.84-.82,1.7,1.7,0,0,0-1.08-.16,1.75,1.75,0,0,0-1.19.78,5.33,5.33,0,0,0-.75,2.31c0,.13,0,.27,0,.4l-1.86.17c0-.15,0-.29.06-.44a7.57,7.57,0,0,1,1.18-3.47"/><path class="cls-20" d="M426.32,211.29h13a2.4,2.4,0,0,1,2.4,2.93h0a3.68,3.68,0,0,1-3.45,2.93h-13a2.38,2.38,0,0,1-2.4-2.93h0a3.67,3.67,0,0,1,3.45-2.93"/><path class="cls-20" d="M426.23,217.87h10.86a1.61,1.61,0,0,1,1.61,2h0a2.46,2.46,0,0,1-2.32,2H425.52a1.62,1.62,0,0,1-1.63-2h0a2.5,2.5,0,0,1,2.34-2"/><path class="cls-20" d="M427.17,222.53h7.29a1.53,1.53,0,0,1,1.55,1.89h0a2.36,2.36,0,0,1-2.22,1.89h-7.3a1.54,1.54,0,0,1-1.55-1.89h0a2.38,2.38,0,0,1,2.23-1.89"/><path class="cls-21" d="M469.4,135.16h0a1.43,1.43,0,0,1,.18,2.1l-4.42,5.84a1.71,1.71,0,0,1-2.2.57h0a1.43,1.43,0,0,1-.2-2.1l4.42-5.84a1.73,1.73,0,0,1,2.22-.57m-45.92,0h0a1.38,1.38,0,0,1,2,.57c.76,1.94,1.54,3.89,2.32,5.84a1.75,1.75,0,0,1-.95,2.1h0a1.38,1.38,0,0,1-2-.57c-.77-1.95-1.55-3.89-2.32-5.84A1.77,1.77,0,0,1,423.48,135.16ZM403.65,152h0a1.74,1.74,0,0,1,2.21-.57l5.24,3.38a1.44,1.44,0,0,1,.19,2.1h0a1.73,1.73,0,0,1-2.23.56l-5.22-3.36A1.44,1.44,0,0,1,403.65,152Zm79.54,0h0a1.78,1.78,0,0,1-.95,2.11l-6.43,3.36a1.38,1.38,0,0,1-2-.56h0a1.77,1.77,0,0,1,.94-2.1l6.44-3.38A1.4,1.4,0,0,1,483.19,152Zm2,23h0a1.94,1.94,0,0,1-1.82,1.55h-6.75a1.26,1.26,0,0,1-1.26-1.55h0a1.92,1.92,0,0,1,1.82-1.54H484A1.26,1.26,0,0,1,485.23,174.93Zm-82,0h0a2,2,0,0,1-1.83,1.55h-6.74a1.26,1.26,0,0,1-1.25-1.55h0a1.93,1.93,0,0,1,1.81-1.54H402A1.26,1.26,0,0,1,403.22,174.93ZM447.54,129h0a1.26,1.26,0,0,1,1.26,1.55q-.62,3.38-1.2,6.74a1.94,1.94,0,0,1-1.82,1.54h0a1.25,1.25,0,0,1-1.27-1.54q.6-3.36,1.21-6.74A1.94,1.94,0,0,1,447.54,129Z"/><path class="cls-17" d="M390.17,189.84c.51-2.36,2.65-11.66,4.38-13.22.89-.8,1.1-.44,1.49.07a4.24,4.24,0,0,1,.54,2.47,34.79,34.79,0,0,1-.6,4.23c5.25-2.75,10.27-9.19,14.11-13.59,1.56-1.8,4-1.6,2.54,1.59-1.23,2.62-8.23,11.16-8.23,11.16l10.44-5.66c1.84-1,1.83,1.27,1,2.22-1.44,1.56-10.41,7.16-10.41,7.16l9.83-1.44a1.09,1.09,0,0,1-.22,1.79c-1.22.73-10.65,3.76-10.65,3.76l6.37.13s.6,1.28-1,1.79c-.85.27-3.08.52-5.2,1.22a23.47,23.47,0,0,0-4.32,2.07c-3.77,2.26-5.56,6-8.23,9.13a17.19,17.19,0,0,1-5.6-10.54Z"/><path class="cls-22" d="M185.26,275.44c20,19.17,16,83.38,41.38,91.37,0,0,18.13,4.19,16.91,9.52s-3.59,7.34-3.59,7.34-21.36,1.94-39.3-1.81c-10.09-2.12-11.58-15.4-15.4-16.94C174.63,360.64,169,317.64,169,317.64Z"/><path class="cls-23" d="M161.73,266.12H117.6A39.6,39.6,0,0,0,78.82,299c-.33,0-1.79,12.28-1.89,13.35-2.18,23-2.35,56.55,4.12,80.73H184.81l.45-57V275.44c-6.85-5.81-13.93-9.32-23.53-9.32"/><path class="cls-17" d="M165.52,224.36A29,29,0,0,0,167,235.05c3.08,8.83-3.67,24-15.47,23l0,8.05h-.18c5.22,6.14-1.22,20.7-7.15,20.74-5.11,0-14.48-11-15.14-20.74v-16.5a4.58,4.58,0,0,1-1.79-.79c-1.18-.72-7.15-6.62-6.67-9.37s6-3.07,6-3.07l1.26-1.11c-3.31-8.16-5.83-8.3,2.71-12.84s25.77-4.19,25.77-4.19l8.92,2.67Z"/><path class="cls-24" d="M151.49,258.09l0,8a30.29,30.29,0,0,1-8.16-2.56,15.06,15.06,0,0,1-7.82-8.37,40.54,40.54,0,0,0,14.3,2.94Z"/><path class="cls-25" d="M208.58,348.27s12.2-.11,16.15,1.38,5.37,3.56,5.37,3.56l4,1s.76,3,0,3-22.17,2-22.17,2l-4.56-.58s1.49-6.83,1-8.16-2.77-2.83-2.77-2.83Z"/><path class="cls-17" d="M112.86,293.74c-4.2-9.32-14-20.13-18.57-11h0c-5.41,5.41-6.55,6.16-6.68,13.34-.39,22.21,8,78.14,32.36,84.42,13,3.37,35.27,6.25,49.91,5.75,5.91-.21,12.43,2.09,14.75.35,8.06-6-1-12.87-1-12.87s-50.61-15-55.76-16.61c-8.53-2.61-12.08-56.86-15-63.39"/><path class="cls-26" d="M186.75,365.18a19.2,19.2,0,0,0-3.05,8.08c-.57,4.63.48,7,.48,7,12.22,1,36.75.06,36.7.05-.83-.12,1.14-1.88-1.49-3.23-1.89-1-8.11-1.29-10.3-2.74-9.72-6.46-16.25-5.19-22.34-9.2"/><path class="cls-27" d="M191.66,322.87h87.67c3.38,0,6.89,2.85,6.15,6.15L272.38,387c-.75,3.29-2.77,6.14-6.15,6.14H178.56c-3.38,0-6.89-2.85-6.14-6.14L185.52,329c.74-3.3,2.76-6.15,6.14-6.15"/><path class="cls-16" d="M195.59,322.87h87.67c3.38,0,6.89,2.85,6.15,6.15L276.3,387c-.74,3.29-2.76,6.14-6.14,6.14H182.49c-3.38,0-6.89-2.85-6.14-6.14L189.45,329c.74-3.3,2.76-6.15,6.14-6.15"/><path class="cls-20" d="M234.73,352.23c2.65.85,4,4.12,2.94,7.3s-4,5.06-6.64,4.21-4-4.12-2.95-7.29,4-5.07,6.65-4.22"/><path class="cls-27" d="M121.63,386.26h51.72l4.9,6.84h-60v-3.42a3.43,3.43,0,0,1,3.42-3.42"/><path class="cls-4" d="M134.33,224.76c-2.51,4.73-1.42,13.12-.22,15.62,1.7,3.57.44,5-1.05,4.48-3.3-1.13-4.3-2.57-6.77-3.76-.58-.27-1.78-.49-2.18,0-1.64,1.82,2,6.93,4.18,8.3-10.81,1.28-25-17.08-16.07-28.36-5.08-35.2,42.13-34.72,59.63-14.78,3,3.44,3.44,10.53,1.62,13.31-8.3,12.61-29.49-.44-37.12,3.29a4.43,4.43,0,0,0-2,1.95"/><path class="cls-28" d="M47,393.1H666.86a3,3,0,1,1,0,6H47a3,3,0,0,1,0-6"/><path class="cls-19" d="M545,279.91c-19.74,19-32.61,77.57-57.7,85.48,0,0-2.33,5.87-1.12,11.14s3.54,7.25,3.54,7.25,21.11,1.92,38.85-1.79c10-2.09,11.45-15.22,15.23-16.75,10.51-4.23,16.07-46.73,16.07-46.73Z"/><path class="cls-29" d="M485.82,373.14c0,1.11-.38.19.35,3.39s3.54,7.25,3.54,7.25,21.11,1.92,38.85-1.79c10-2.09,14.6-10.11,18.38-11.64,4.57-1.84,2.19-37.88,5.59-41.79l.5-2.22-7.26-22.94s-10.81,55.33-32.36,62-22.57,6.6-27.59,7.75"/><path class="cls-4" d="M557.5,208.59c5.09,37.15-19.88,48.62,4.57,83,0,0,15-16.48,21.38-17.65s7.27-21.32,7.27-22.36S585,210.33,585,210.33Z"/><path class="cls-19" d="M572.53,267.58h38.08c19.14,0,36.59,13.25,39.76,31.65,6.32,35.24-6.14,90.62-6.45,93.87H544.23l-.44-56.36,1.2-56.83c5.91-6.6,18-12.33,27.54-12.33"/><path class="cls-16" d="M599.34,267.58c-6.2,17.28-14.32,5.7-22.21,0-1.54,0-4-.1-6.55.08-22.21,74.21-5.84,74.21-3.46,112.26l21.73,10.92c4.85-2.95,11.5-5.61,16.34-8.56.75-38.72-14.9-39,5.42-114.7Z"/><path class="cls-17" d="M563.3,226.3a28.79,28.79,0,0,1-1.42,10.56c-3,8.74,3.62,23.76,15.29,22.77l0,7.95h.18c-2.89,9.71,2.8,18.92,7.25,19.11,3.94.17,14.24-6.12,14.78-19.11l-1.16-13c.58-.17,1.76-2.66,2.93-3.37s2.46-3.72,2-6.44a57.62,57.62,0,0,0-2.89-8.39c3.28-8.06,6.1-7.51-2.34-12s-25.48-4.14-25.48-4.14l-8.81,2.64Z"/><path class="cls-30" d="M577.17,259.64l0,7.86A29.86,29.86,0,0,0,585.2,265a14.9,14.9,0,0,0,7.73-8.26,40.35,40.35,0,0,1-14.14,2.91Z"/><path class="cls-25" d="M520.73,348.79s-12.06-.11-16,1.36-5.31,3.52-5.31,3.52l-4,1s-.75,3,0,3,21.91,2,21.91,2l4.51-.59s-1.48-6.75-1-8.06,2.74-2.8,2.74-2.8Z"/><path class="cls-31" d="M617,291.09c4.15-9.21,16.51-14.21,23.66-7.07h0c5.34,5.35,6.47,6.09,6.59,13.18.4,22-8.58,83.8-33.14,87.5-13.47,2-35.44,4.18-49.91,3.68-5.85-.2-10.56,0-12.85-1.69-8-6,3.42-15.07,3.42-15.07S598.3,356,603.4,354.44c8.43-2.57,10.69-56.89,13.59-63.35"/><path class="cls-32" d="M645.38,289.7c13.38,19.54-7.38,91.61-31.28,95-13.49,1.92-35.45,4.18-49.91,3.68-5.85-.2-10.55,0-12.85-1.69,0,0,43-5.5,63.44-11.4,18.43-5.31,31.22-64.05,30.6-85.59"/><path class="cls-26" d="M542.31,365.5a19,19,0,0,1,3,8c.56,4.58-.48,7-.48,7-12.07,1-36.32.06-36.28.05.82-.12-1.12-1.86,1.47-3.2,1.87-1,8-1.27,10.19-2.7,9.6-6.39,16.06-5.14,22.08-9.1"/><path class="cls-27" d="M537.46,323.68H450.8c-3.35,0-6.82,2.82-6.08,6.08L457.67,387c.74,3.26,2.73,6.08,6.08,6.08h86.66c3.34,0,6.81-2.82,6.07-6.08l-13-57.27c-.74-3.26-2.73-6.08-6.07-6.08"/><path class="cls-16" d="M533.57,323.68H446.91c-3.34,0-6.81,2.82-6.08,6.08L453.78,387c.74,3.26,2.74,6.08,6.08,6.08h86.66c3.34,0,6.81-2.82,6.08-6.08l-13-57.27c-.74-3.26-2.74-6.08-6.08-6.08"/><path class="cls-20" d="M494.89,352.7c-2.62.85-3.93,4.08-2.92,7.22s4,5,6.58,4.16,3.92-4.07,2.91-7.21-4-5-6.57-4.17"/><path class="cls-27" d="M597.6,387.43h-44v5.68h46.85v-2.84a2.85,2.85,0,0,0-2.84-2.84"/><path class="cls-33" d="M239,370.93H273a11.09,11.09,0,1,1,0,22.17H239a11.09,11.09,0,1,1,0-22.17"/><path class="cls-10" d="M268.94,389.7h77c-5-1.6-7.47-11.32,0-15.52h-77c-2.78,0-5.06,3.5-5.06,7.76s2.28,7.76,5.06,7.76"/><path class="cls-34" d="M348.53,393.1H268.67c-4,0-8.25-5.09-8.25-11.23s4.24-11.09,8.25-11.09h79.86l0,3.34-79.55.06c-2.78,0-5.06,3.5-5.06,7.76s2.28,7.76,5.06,7.76l79.55-.05Z"/><path class="cls-35" d="M280.66,382.17h9c3.46,1.31,2.46,6.5,4.51,9.9l-5.32-2.8L285,391.89c-3-3.08-1.29-8.34-4.34-9.72"/><path class="cls-33" d="M346.1,357.56h-33a6.85,6.85,0,0,0-6.83,6.83h0a6.85,6.85,0,0,0,6.83,6.83h33a6.85,6.85,0,0,0,6.83-6.83h0a6.85,6.85,0,0,0-6.83-6.83"/><path class="cls-10" d="M318.9,369.12H255.07c2.49-1,4.5-6.05,0-9.56H318.9c2.31,0,4.2,2.15,4.2,4.78s-1.89,4.78-4.2,4.78"/><path class="cls-34" d="M252.92,371.22h66.21A7.22,7.22,0,0,0,326,364.3a7.14,7.14,0,0,0-6.83-6.84H252.92l0,2.06,65.95,0c2.31,0,4.2,2.15,4.2,4.78s-1.89,4.78-4.2,4.78l-65.95,0Z"/><path class="cls-36" d="M442.25,359.85c0,18.29-2.49,33.25-5.54,33.25H417.76c-3.05,0-5.54-15-5.54-33.25Z"/><path class="cls-37" d="M442.11,367.14c-.55,14.81-2.77,26-5.4,26H417.76c-3,0-5.51-14.77-5.54-32.9l.17-.25s3.1,20.52,8.34,23.71,9.57,2.51,15.15-5.93c2.39-3.6,4.55-7.41,6.23-10.59"/><path class="cls-38" d="M419.48,359.85c1.13-14.17,8.75-43.67,21-44.33,10.65,7.77-1.23,34.78-4.72,44.33Z"/><rect class="cls-39" x="413.32" y="340.98" width="38.51" height="0.53" transform="translate(-8.7 671.16) rotate(-75.05)"/><polygon class="cls-39" points="424.06 352.12 428.63 355 430.6 347.65 435.87 344.77 436.13 345.24 431.05 348 428.96 355.84 423.78 352.57 424.06 352.12"/><polygon class="cls-39" points="427.33 339.9 431.9 342.79 433.87 335.43 439.15 332.55 439.4 333.02 434.32 335.79 432.23 343.62 427.05 340.35 427.33 339.9"/><polygon class="cls-39" points="429.37 332.31 433.94 335.19 435.9 327.84 441.18 324.96 441.44 325.43 436.36 328.19 434.27 336.03 429.08 332.75 429.37 332.31"/><path class="cls-38" d="M427.34,359.67c-.73-9.16-5.67-28.24-13.58-28.67-6.89,5,.79,22.5,3.05,28.67Z"/><rect class="cls-39" x="418.69" y="335.18" width="0.34" height="24.91" transform="translate(-75.51 119.83) rotate(-14.95)"/><polygon class="cls-39" points="424.37 354.67 421.42 356.54 420.15 351.78 416.73 349.92 416.57 350.22 419.85 352.01 421.2 357.08 424.56 354.96 424.37 354.67"/><polygon class="cls-39" points="422.25 346.77 419.3 348.64 418.03 343.88 414.61 342.02 414.45 342.32 417.73 344.11 419.09 349.18 422.44 347.06 422.25 346.77"/><polygon class="cls-39" points="420.94 341.86 417.98 343.73 416.71 338.97 413.3 337.11 413.13 337.41 416.42 339.2 417.77 344.26 421.12 342.15 420.94 341.86"/><rect class="cls-40" x="412.39" y="359.95" width="29.85" height="1.73"/><path class="cls-22" d="M117.41,288.07c-3.93-8.73-14.85-13.87-22.49-9.35a16.25,16.25,0,0,0-7,9.07c-5.43,20,7.13,68,12,80a59.52,59.52,0,0,1,27.61-14.19c-4.89-17-7.73-60.28-10.1-65.55"/><path class="cls-41" d="M88.37,286.73c-8.83,19.49,5.07,65.07,11.53,81.08a68.56,68.56,0,0,1,7-5.48c-9.42-20.65-17.93-58.91-18.56-75.6"/><path class="cls-9" d="M127.51,353.62a3.25,3.25,0,0,1-.69,1.62c-.51.42-.79.63-.79.63l-.83-1.7Z"/><path class="cls-16" d="M145.29,305.83a1.87,1.87,0,1,0,1.66,1.85,1.76,1.76,0,0,0-1.66-1.85m0-10.77a1.87,1.87,0,1,0,1.66,1.86A1.76,1.76,0,0,0,145.29,295.06Zm6.24-27.94c3.34,9.46-2.18,16.54-7.33,19.74-8-5.79-15.16-11.43-15.16-22.32,0,0-2.75-.05-4.54,4.83-3,7.91,2,25.67,2,25.67s5.55-8,10.16-8.45a14.7,14.7,0,0,1,7.6,1.13c5.9-4.84,9.92,1.43,13.87,6,1.24-11.72,1.25-19.94-6.6-29A20.63,20.63,0,0,0,151.53,267.12Z"/><rect class="cls-42" x="162.79" y="317.57" width="17.75" height="4.31"/><path class="cls-43" d="M357.63,328.94a3.43,3.43,0,1,1-3.43,3.43,3.44,3.44,0,0,1,3.43-3.43"/><path class="cls-44" d="M370.34,328.94a3.43,3.43,0,1,1-3.43,3.43,3.43,3.43,0,0,1,3.43-3.43"/><path class="cls-44" d="M383.05,328.94a3.43,3.43,0,1,1-3.43,3.43,3.44,3.44,0,0,1,3.43-3.43"/><path class="cls-45" d="M564.47,124.89h36a.52.52,0,0,1,.52.53V127a.52.52,0,0,1-.52.53h-36a.53.53,0,0,1-.53-.53v-1.53a.53.53,0,0,1,.53-.53"/><path class="cls-46" d="M564.47,137h81.62a.52.52,0,0,1,.52.52V139a.52.52,0,0,1-.52.52H564.47a.52.52,0,0,1-.53-.52v-1.54a.53.53,0,0,1,.53-.52"/><path class="cls-46" d="M564.47,149h81.62a.52.52,0,0,1,.52.52v1.53a.52.52,0,0,1-.52.53H564.47a.53.53,0,0,1-.53-.53v-1.53a.52.52,0,0,1,.53-.52"/><path class="cls-46" d="M564.47,161.06h81.62a.52.52,0,0,1,.52.53v1.53a.52.52,0,0,1-.52.52H564.47a.52.52,0,0,1-.53-.52v-1.53a.53.53,0,0,1,.53-.53"/><path class="cls-46" d="M564.47,173.12h81.62a.52.52,0,0,1,.52.52v1.54a.52.52,0,0,1-.52.52H564.47a.53.53,0,0,1-.53-.52v-1.54a.52.52,0,0,1,.53-.52"/><path class="cls-15" d="M385.51,241.83H466.2a2.07,2.07,0,0,1,2.07,2.07h0A2.08,2.08,0,0,1,466.2,246H385.51a2.09,2.09,0,0,1-2.08-2.08h0a2.08,2.08,0,0,1,2.08-2.07"/><path class="cls-4" d="M586.38,222.79s-20.27,5.31-31.7-1.62c-7.49-5.19-8.34-15.72,2.64-23.48,14.15-10,41.29-7.05,51.7,8.88,3.64,5.56,7.27,15.23,11.58,25.08,10,22.9,36.87,8.59,44.54,47,.35,1.78-6-2.23-11.69-3.68a22.92,22.92,0,0,1-3.17,23.73c-6.1-27.83-31.47-28.92-50.94-31.15-2.89-2.67-3.29-10.2-3.31-14,0,0,5.86-4.12,5.57-8.91s-1.64-4.67-2.18-4.55a36.22,36.22,0,0,0-3.69,1.94c-1.11-6.22-.86-18.62-9.35-19.31"/><path class="cls-16" d="M596.88,248.41a2.23,2.23,0,1,1-2.22,2.22,2.22,2.22,0,0,1,2.22-2.22"/><path class="cls-47" d="M477.65,44.59h0a1.57,1.57,0,0,1,1.57,1.56V59.84a1.58,1.58,0,0,1-1.57,1.57h0a1.57,1.57,0,0,1-1.56-1.57V46.15a1.56,1.56,0,0,1,1.56-1.56"/><path class="cls-47" d="M486.06,53h0a1.56,1.56,0,0,1-1.56,1.56H470.81A1.57,1.57,0,0,1,469.24,53h0a1.58,1.58,0,0,1,1.57-1.57H484.5A1.57,1.57,0,0,1,486.06,53"/><path class="cls-47" d="M299.92,60.06h0a1.28,1.28,0,0,1,1.28,1.28V72.47a1.28,1.28,0,0,1-1.28,1.27h0a1.27,1.27,0,0,1-1.27-1.27V61.34a1.27,1.27,0,0,1,1.27-1.28"/><path class="cls-47" d="M306.76,66.9h0a1.28,1.28,0,0,1-1.27,1.28H294.35a1.28,1.28,0,0,1-1.27-1.28h0a1.27,1.27,0,0,1,1.27-1.27h11.14a1.27,1.27,0,0,1,1.27,1.27"/><path class="cls-48" d="M361,10.4a4,4,0,0,0-5.7,0h0a4,4,0,0,0,0,5.7h0a4.05,4.05,0,0,0,2.85,1.17A4,4,0,0,0,361,10.4ZM358.12,7a6.26,6.26,0,0,1,4.44,1.84h0a6.28,6.28,0,1,1-8.87,8.88h0a6.26,6.26,0,0,1,0-8.87h0A6.28,6.28,0,0,1,358.12,7Z"/><path class="cls-48" d="M416.74,82a3.43,3.43,0,0,0-4.86,0h0a3.45,3.45,0,0,0,0,4.87h0A3.44,3.44,0,0,0,416.75,82Zm-2.43-2.93a5.34,5.34,0,0,1,3.79,1.57h0a5.36,5.36,0,0,1-7.58,7.57h0a5.35,5.35,0,0,1,0-7.57h0A5.36,5.36,0,0,1,414.31,79.08Z"/><path class="cls-48" d="M556,57.33a3.45,3.45,0,0,0-4.86,0h0a3.43,3.43,0,0,0-1,2.44,3.39,3.39,0,0,0,1,2.43h0a3.43,3.43,0,0,0,4.86,0,3.39,3.39,0,0,0,1-2.43,3.43,3.43,0,0,0-1-2.44Zm-2.43-2.92A5.34,5.34,0,0,1,557.34,56h0a5.36,5.36,0,1,1-7.58,7.58h0a5.36,5.36,0,0,1,0-7.58h0A5.36,5.36,0,0,1,553.55,54.41Z"/><path class="cls-48" d="M237.71,52.23a3.43,3.43,0,0,0-4.86,0h0a3.42,3.42,0,0,0-1,2.43,3.47,3.47,0,0,0,1,2.44h0a3.44,3.44,0,0,0,4.87-4.87Zm-2.43-2.93a5.34,5.34,0,0,1,3.79,1.57h0a5.36,5.36,0,0,1-7.58,7.57h0a5.35,5.35,0,0,1,0-7.57h0A5.34,5.34,0,0,1,235.28,49.3Z"/><path class="cls-47" d="M599.1,88.86h0A1.11,1.11,0,0,1,600.21,90V99.7a1.11,1.11,0,0,1-1.11,1.11h0A1.12,1.12,0,0,1,598,99.7V90a1.12,1.12,0,0,1,1.12-1.11"/><path class="cls-47" d="M605.07,94.83h0A1.12,1.12,0,0,1,604,96h-9.73a1.12,1.12,0,0,1-1.11-1.12h0a1.11,1.11,0,0,1,1.11-1.11H604a1.11,1.11,0,0,1,1.11,1.11"/><path class="cls-47" d="M204.5,88h0a1,1,0,0,1,1,1v8.46a1,1,0,0,1-1,1h0a1,1,0,0,1-1-1V89a1,1,0,0,1,1-1"/><path class="cls-47" d="M209.7,93.22h0a1,1,0,0,1-1,1h-8.46a1,1,0,0,1-1-1h0a1,1,0,0,1,1-1h8.46a1,1,0,0,1,1,1"/></svg>